<svg xmlns="http://www.w3.org/2000/svg" width="980" height="340" viewBox="0 0 980 340" role="img" aria-label="Guardrails policy governance loop">
  <defs><marker id="a" viewBox="0 0 10 10" refX="8" refY="5" markerWidth="7" markerHeight="7" orient="auto-start-reverse"><path d="M0 0 L10 5 L0 10z" fill="#d14b4b"/></marker><style>.bg{fill:#fff}.comp{fill:#eef5ff;stroke:#2563eb;stroke-width:1.5}.ext{fill:#f4f4f5;stroke:#9ca3af;stroke-width:1.3}.risk{fill:#fff1f2;stroke:#d14b4b;stroke-width:1.4}.l{fill:none;stroke:#d14b4b;stroke-width:2;marker-end:url(#a)}.txt{font:15px -apple-system,BlinkMacSystemFont,"Segoe UI",sans-serif;fill:#111827}.sub{font:12px -apple-system,BlinkMacSystemFont,"Segoe UI",sans-serif;fill:#4b5563}</style></defs>
  <rect class="bg" width="980" height="340"/>
  <rect class="ext" x="60" y="138" width="154" height="58" rx="6"/><text class="txt" x="137" y="162" text-anchor="middle">Online request</text><text class="sub" x="137" y="183" text-anchor="middle">Matches and feedback</text>
  <rect class="risk" x="274" y="54" width="154" height="58" rx="6"/><text class="txt" x="351" y="78" text-anchor="middle">False positives</text><text class="sub" x="351" y="99" text-anchor="middle">Legitimate but blocked</text>
  <rect class="risk" x="274" y="222" width="138" height="58" rx="6"/><text class="txt" x="343" y="246" text-anchor="middle">False negatives</text><text class="sub" x="343" y="267" text-anchor="middle">Risk missed</text>
  <rect class="comp" x="492" y="138" width="138" height="58" rx="6"/><text class="txt" x="561" y="162" text-anchor="middle">Sample library</text><text class="sub" x="561" y="183" text-anchor="middle">Labels and versions</text>
  <rect class="comp" x="708" y="138" width="154" height="58" rx="6"/><text class="txt" x="785" y="162" text-anchor="middle">Policy canary</text><text class="sub" x="785" y="183" text-anchor="middle">Regression and release</text>
  <path class="l" d="M214 154 C240 132 246 86 274 83"/><path class="l" d="M214 180 C240 204 246 248 274 251"/><path class="l" d="M428 83 C462 92 470 144 492 154"/><path class="l" d="M412 251 C454 238 468 190 492 180"/><path class="l" d="M630 167H708"/><path class="l" d="M785 138 C750 24 226 24 137 138"/><text class="sub" x="540" y="24" text-anchor="middle">Policy changes return to monitoring and regression sets</text>
</svg>
