<svg xmlns="http://www.w3.org/2000/svg" width="980" height="340" viewBox="0 0 980 340" role="img" aria-label="NIST AI RMF lifecycle loop">
  <defs><marker id="a" viewBox="0 0 10 10" refX="8" refY="5" markerWidth="7" markerHeight="7" orient="auto-start-reverse"><path d="M0 0 L10 5 L0 10z" fill="#d14b4b"/></marker><style>.bg{fill:#fff}.comp{fill:#eef5ff;stroke:#2563eb;stroke-width:1.5}.ext{fill:#f4f4f5;stroke:#9ca3af;stroke-width:1.3}.ctrl{fill:#fff1f2;stroke:#d14b4b;stroke-width:1.4}.l{fill:none;stroke:#d14b4b;stroke-width:2;marker-end:url(#a)}.txt{font:15px -apple-system,BlinkMacSystemFont,"Segoe UI",sans-serif;fill:#111827}.sub{font:12px -apple-system,BlinkMacSystemFont,"Segoe UI",sans-serif;fill:#4b5563}</style></defs>
  <rect class="bg" width="980" height="340"/>
  <rect class="ctrl" x="400" y="132" width="180" height="70" rx="35"/><text class="txt" x="490" y="158" text-anchor="middle">Govern</text><text class="sub" x="490" y="178" text-anchor="middle">Accountability / policy</text><text class="sub" x="490" y="194" text-anchor="middle">/ gates</text>
  <rect class="comp" x="146" y="60" width="150" height="58" rx="6"/><text class="txt" x="221" y="84" text-anchor="middle">Map</text><text class="sub" x="221" y="105" text-anchor="middle">Use cases and impact</text>
  <rect class="comp" x="684" y="60" width="150" height="64" rx="6"/><text class="txt" x="759" y="84" text-anchor="middle">Measure</text><text class="sub" x="759" y="104" text-anchor="middle">Evaluation and</text><text class="sub" x="759" y="120" text-anchor="middle">red teaming</text>
  <rect class="comp" x="684" y="230" width="150" height="64" rx="6"/><text class="txt" x="759" y="254" text-anchor="middle">Manage</text><text class="sub" x="759" y="274" text-anchor="middle">Mitigation and</text><text class="sub" x="759" y="290" text-anchor="middle">monitoring</text>
  <rect class="ext" x="146" y="230" width="150" height="58" rx="6"/><text class="txt" x="221" y="254" text-anchor="middle">Runtime evidence</text><text class="sub" x="221" y="275" text-anchor="middle">trace / incident</text>
  <path class="l" d="M296 89 C352 70 384 116 420 132"/><path class="l" d="M580 150 C632 136 650 92 684 89"/><path class="l" d="M759 118V230"/><path class="l" d="M684 259H296"/><path class="l" d="M221 230V118"/>
</svg>
