<svg xmlns="http://www.w3.org/2000/svg" width="980" height="330" viewBox="0 0 980 330" role="img" aria-label="AI red teaming state machine">
  <defs><marker id="a" viewBox="0 0 10 10" refX="8" refY="5" markerWidth="7" markerHeight="7" orient="auto-start-reverse"><path d="M0 0 L10 5 L0 10z" fill="#d14b4b"/></marker><style>.bg{fill:#fff}.s{fill:#eef5ff;stroke:#2563eb;stroke-width:1.5}.e{fill:#f4f4f5;stroke:#9ca3af;stroke-width:1.3}.r{fill:#fff1f2;stroke:#d14b4b;stroke-width:1.4}.l{fill:none;stroke:#d14b4b;stroke-width:2;marker-end:url(#a)}.txt{font:14px -apple-system,BlinkMacSystemFont,"Segoe UI",sans-serif;fill:#111827}.sub{font:12px -apple-system,BlinkMacSystemFont,"Segoe UI",sans-serif;fill:#4b5563}</style></defs>
  <rect class="bg" width="980" height="330"/>
  <rect class="e" x="44" y="134" width="118" height="54" rx="27"/><text class="txt" x="103" y="166" text-anchor="middle">资产登记</text>
  <rect class="s" x="216" y="134" width="118" height="54" rx="27"/><text class="txt" x="275" y="166" text-anchor="middle">威胁建模</text>
  <rect class="s" x="388" y="64" width="118" height="54" rx="27"/><text class="txt" x="447" y="96" text-anchor="middle">攻击集生成</text>
  <rect class="s" x="388" y="204" width="118" height="54" rx="27"/><text class="txt" x="447" y="236" text-anchor="middle">自动化执行</text>
  <rect class="r" x="570" y="204" width="118" height="54" rx="27"/><text class="txt" x="629" y="236" text-anchor="middle">人工复核</text>
  <rect class="s" x="742" y="134" width="118" height="54" rx="27"/><text class="txt" x="801" y="166" text-anchor="middle">修复回归</text>
  <rect class="e" x="742" y="34" width="118" height="54" rx="27"/><text class="txt" x="801" y="66" text-anchor="middle">发布验收</text>
  <path class="l" d="M162 161H216"/><path class="l" d="M334 151 C360 136 364 96 388 91"/><path class="l" d="M447 118V204"/><path class="l" d="M506 231H570"/><path class="l" d="M688 231 C716 218 720 175 742 161"/><path class="l" d="M801 134V88"/><path class="l" d="M742 61 C640 26 542 34 506 80"/><text class="sub" x="588" y="28">失败样例沉淀为长期基线</text>
</svg>
