<svg xmlns="http://www.w3.org/2000/svg" width="980" height="350" viewBox="0 0 980 350" role="img" aria-label="Programmable policy engine flow">
  <defs><marker id="r" viewBox="0 0 10 10" refX="8" refY="5" markerWidth="7" markerHeight="7" orient="auto-start-reverse"><path d="M0 0 L10 5 L0 10z" fill="#d14b4b"/></marker><style>.bg{fill:#fff}.comp{fill:#eef5ff;stroke:#2563eb;stroke-width:1.5}.ext{fill:#f4f4f5;stroke:#9ca3af;stroke-width:1.3}.guard{fill:#fff1f2;stroke:#d14b4b;stroke-width:1.4}.flow{fill:none;stroke:#d14b4b;stroke-width:2;marker-end:url(#r)}.txt{font:15px -apple-system,BlinkMacSystemFont,"Segoe UI",sans-serif;fill:#111827}.sub{font:12px -apple-system,BlinkMacSystemFont,"Segoe UI",sans-serif;fill:#4b5563}</style></defs>
  <rect class="bg" width="980" height="350"/>
  <rect class="ext" x="44" y="118" width="140" height="62" rx="6"/><text class="txt" x="114" y="145" text-anchor="middle">请求上下文</text><text class="sub" x="114" y="167" text-anchor="middle">用户 / 资源 / 动作</text>
  <rect class="comp" x="250" y="72" width="150" height="58" rx="6"/><text class="txt" x="325" y="106" text-anchor="middle">内容分类器</text>
  <rect class="comp" x="250" y="190" width="150" height="58" rx="6"/><text class="txt" x="325" y="224" text-anchor="middle">IAM / 数据权限</text>
  <rect class="guard" x="482" y="118" width="154" height="62" rx="6"/><text class="txt" x="559" y="145" text-anchor="middle">Policy Engine</text><text class="sub" x="559" y="167" text-anchor="middle">allow / deny / approve</text>
  <rect class="comp" x="718" y="46" width="150" height="58" rx="6"/><text class="txt" x="793" y="80" text-anchor="middle">放行执行</text>
  <rect class="guard" x="718" y="146" width="150" height="58" rx="6"/><text class="txt" x="793" y="180" text-anchor="middle">脱敏 / 审批</text>
  <rect class="ext" x="718" y="246" width="150" height="58" rx="6"/><text class="txt" x="793" y="280" text-anchor="middle">审计记录</text>
  <path class="flow" d="M184 149 C216 136 222 104 250 101"/><path class="flow" d="M184 149 C216 168 222 216 250 219"/><path class="flow" d="M400 101 C438 104 444 140 482 144"/><path class="flow" d="M400 219 C438 213 444 160 482 154"/><path class="flow" d="M636 140 C672 132 680 78 718 75"/><path class="flow" d="M636 153H718"/><path class="flow" d="M636 166 C676 176 676 274 718 275"/>
</svg>
