<svg xmlns="http://www.w3.org/2000/svg" width="980" height="390" viewBox="0 0 980 390" role="img" aria-label="Compliance control matrix in platform">
  <defs><marker id="r" viewBox="0 0 10 10" refX="8" refY="5" markerWidth="7" markerHeight="7" orient="auto-start-reverse"><path d="M0 0 L10 5 L0 10z" fill="#d14b4b"/></marker><marker id="b" viewBox="0 0 10 10" refX="8" refY="5" markerWidth="7" markerHeight="7" orient="auto-start-reverse"><path d="M0 0 L10 5 L0 10z" fill="#2563eb"/></marker><style>.bg{fill:#fff}.comp{fill:#eef5ff;stroke:#2563eb;stroke-width:1.5}.ext{fill:#f4f4f5;stroke:#9ca3af;stroke-width:1.3}.ctrl{fill:#fff1f2;stroke:#d14b4b;stroke-width:1.4}.red{fill:none;stroke:#d14b4b;stroke-width:2;marker-end:url(#r)}.blue{fill:none;stroke:#2563eb;stroke-width:2;marker-end:url(#b)}.txt{font:15px -apple-system,BlinkMacSystemFont,"Segoe UI",sans-serif;fill:#111827}.sub{font:12px -apple-system,BlinkMacSystemFont,"Segoe UI",sans-serif;fill:#4b5563}</style></defs>
  <rect class="bg" width="980" height="390"/>
  <rect class="ext" x="42" y="54" width="150" height="56" rx="6"/><text class="txt" x="117" y="88" text-anchor="middle">Use Case Registry</text>
  <rect class="ext" x="42" y="134" width="150" height="56" rx="6"/><text class="txt" x="117" y="168" text-anchor="middle">Data Lineage</text>
  <rect class="ext" x="42" y="214" width="150" height="56" rx="6"/><text class="txt" x="117" y="248" text-anchor="middle">Model Registry</text>
  <rect class="ctrl" x="316" y="116" width="170" height="96" rx="6"/><text class="txt" x="401" y="150" text-anchor="middle">控制矩阵</text><text class="sub" x="401" y="174" text-anchor="middle">风险 / 控制 / 证据</text><text class="sub" x="401" y="194" text-anchor="middle">owner / release gate</text>
  <rect class="comp" x="612" y="54" width="150" height="56" rx="6"/><text class="txt" x="687" y="88" text-anchor="middle">Policy Engine</text>
  <rect class="comp" x="612" y="134" width="150" height="56" rx="6"/><text class="txt" x="687" y="168" text-anchor="middle">Eval &amp; Red Team</text>
  <rect class="comp" x="612" y="214" width="150" height="56" rx="6"/><text class="txt" x="687" y="248" text-anchor="middle">Observability</text>
  <rect class="ext" x="798" y="134" width="140" height="56" rx="6"/><text class="txt" x="868" y="168" text-anchor="middle">审计报告</text>
  <path class="blue" d="M192 82 C246 82 262 138 316 150"/><path class="blue" d="M192 162H316"/><path class="blue" d="M192 242 C246 242 262 190 316 176"/>
  <path class="red" d="M486 144 C548 134 552 86 612 82"/><path class="red" d="M486 164H612"/><path class="red" d="M486 184 C548 196 552 242 612 242"/><path class="blue" d="M762 162H798"/>
</svg>
