<svg xmlns="http://www.w3.org/2000/svg" width="760" height="640" viewBox="0 0 760 640" role="img" aria-label="Artifact 生命周期状态机">
  <defs><marker id="arrow" viewBox="0 0 10 10" refX="9" refY="5" markerWidth="8" markerHeight="8" orient="auto"><path d="M1 1 L9 5 L1 9 Z" fill="#263238"/></marker><style>.bg{fill:#fff}.state{fill:#eef5ff;stroke:#6b46ff;stroke-width:1.4}.done{fill:#f2efff;stroke:#6b46ff;stroke-width:1.4}.txt{font-family:"PingFang SC","Noto Sans CJK SC","Microsoft YaHei",Arial,sans-serif;font-size:16px;fill:#111827}.small{font-size:13px;fill:#374151}.flow{stroke:#263238;stroke-width:1.4;fill:none;marker-end:url(#arrow)}.dot{fill:#263238}</style></defs>
  <rect class="bg" width="760" height="640"/>
  <circle class="dot" cx="100" cy="48" r="8"/><path class="flow" d="M100 56 V90"/><text class="small" x="124" y="78">工具结果创建</text>
  <rect class="state" x="60" y="92" width="80" height="46" rx="6"/><text class="txt" x="100" y="121" text-anchor="middle">草稿</text>
  <rect class="state" x="60" y="198" width="105" height="46" rx="6"/><text class="txt" x="112" y="227" text-anchor="middle">审核中</text>
  <rect class="state" x="54" y="304" width="112" height="46" rx="6"/><text class="txt" x="110" y="333" text-anchor="middle">已驳回</text>
  <rect class="state" x="54" y="410" width="100" height="46" rx="6"/><text class="txt" x="104" y="439" text-anchor="middle">编辑中</text>
  <rect class="state" x="338" y="304" width="104" height="46" rx="6"/><text class="txt" x="390" y="333" text-anchor="middle">已通过</text>
  <rect class="state" x="338" y="410" width="118" height="46" rx="6"/><text class="txt" x="397" y="439" text-anchor="middle">已发布</text>
  <rect class="done" x="510" y="528" width="112" height="46" rx="6"/><text class="txt" x="566" y="557" text-anchor="middle">已归档</text>
  <path class="flow" d="M100 138 V198"/><text class="small" x="118" y="172">提交审核</text>
  <path class="flow" d="M112 244 V304"/><text class="small" x="130" y="278">驳回</text>
  <path class="flow" d="M104 350 V410"/><text class="small" x="122" y="384">修改</text>
  <path class="flow" d="M154 433 C240 432 270 128 140 116"/><text class="small" x="194" y="274">保存草稿</text>
  <path class="flow" d="M165 221 C230 236 282 286 338 318"/><text class="small" x="258" y="270">通过</text>
  <path class="flow" d="M397 350 V410"/><text class="small" x="415" y="384">发布或导出</text>
  <path class="flow" d="M397 456 C398 502 448 536 510 548"/><text class="small" x="434" y="506">归档</text>
  <path class="flow" d="M140 116 C610 136 680 468 622 546"/><text class="small" x="630" y="324">丢弃</text>
  <path class="flow" d="M54 433 C18 410 18 188 60 116"/><text class="small" x="18" y="252">人工编辑</text>
</svg>
