<svg xmlns="http://www.w3.org/2000/svg" width="1200" height="720" viewBox="0 0 1200 720" role="img" aria-labelledby="title desc">
  <title id="title">图 5-1：企业模型矩阵与运行时路由</title>
  <desc id="desc">业务任务画像经过策略、模型目录、评测准入和选择器，路由到不同模型池，并记录回退和护栏。</desc>
  <defs>
    <marker id="arrow" markerWidth="12" markerHeight="12" refX="10" refY="6" orient="auto">
      <path d="M2,2 L10,6 L2,10 Z" fill="#334155"/>
    </marker>
    <filter id="shadow" x="-10%" y="-10%" width="120%" height="130%">
      <feDropShadow dx="0" dy="8" stdDeviation="9" flood-color="#0f172a" flood-opacity="0.12"/>
    </filter>
    <style>
      .bg { fill: #f8fafc; }
      .panel { fill: #ffffff; stroke: #cbd5e1; stroke-width: 1.4; rx: 8; filter: url(#shadow); }
      .task { fill: #eef6ff; stroke: #7dd3fc; stroke-width: 1.2; rx: 8; }
      .gov { fill: #f7fee7; stroke: #bef264; stroke-width: 1.2; rx: 8; }
      .model { fill: #fff7ed; stroke: #fdba74; stroke-width: 1.2; rx: 8; }
      .guard { fill: #fff1f2; stroke: #fda4af; stroke-width: 1.2; rx: 8; }
      .title { font: 700 32px "Inter", "Noto Sans SC", "Microsoft YaHei", sans-serif; fill: #0f172a; }
      .subtitle { font: 400 16px "Inter", "Noto Sans SC", "Microsoft YaHei", sans-serif; fill: #475569; }
      .head { font: 700 20px "Inter", "Noto Sans SC", "Microsoft YaHei", sans-serif; fill: #0f172a; }
      .label { font: 600 16px "Inter", "Noto Sans SC", "Microsoft YaHei", sans-serif; fill: #1e293b; }
      .text { font: 400 14px "Inter", "Noto Sans SC", "Microsoft YaHei", sans-serif; fill: #475569; }
      .tiny { font: 400 12px "Inter", "Noto Sans SC", "Microsoft YaHei", sans-serif; fill: #64748b; }
      .line { stroke: #334155; stroke-width: 2; fill: none; marker-end: url(#arrow); }
      .dash { stroke: #94a3b8; stroke-width: 1.6; stroke-dasharray: 6 6; fill: none; marker-end: url(#arrow); }
    </style>
  </defs>

  <rect class="bg" width="1200" height="720"/>
  <text class="title" x="60" y="58">企业模型选型不是一个模型，而是一套模型矩阵</text>
  <text class="subtitle" x="60" y="88">业务只声明任务画像；平台按数据边界、SLO、成本和评测结果选择 primary、fallback 与 guard。</text>

  <rect class="panel" x="46" y="122" width="300" height="510"/>
  <text class="head" x="72" y="158">任务画像</text>
  <text class="tiny" x="72" y="180">输入、输出、风险、数据分类、SLO</text>

  <rect class="task" x="72" y="205" width="248" height="72"/>
  <text class="label" x="92" y="232">客服工单分类</text>
  <text class="text" x="92" y="255">JSON 合法率 / 成本 / P95</text>

  <rect class="task" x="72" y="294" width="248" height="72"/>
  <text class="label" x="92" y="321">DataAgent / NL2SQL</text>
  <text class="text" x="92" y="344">推理 / 工具调用 / SQL 安全</text>

  <rect class="task" x="72" y="383" width="248" height="72"/>
  <text class="label" x="92" y="410">合同审阅</text>
  <text class="text" x="92" y="433">证据引用 / 风险分级 / HITL</text>

  <rect class="task" x="72" y="472" width="248" height="72"/>
  <text class="label" x="92" y="499">门店离线助手</text>
  <text class="text" x="92" y="522">本地部署 / 低网络依赖</text>

  <rect class="panel" x="448" y="122" width="304" height="510"/>
  <text class="head" x="476" y="158">治理与选择层</text>
  <text class="tiny" x="476" y="180">把技术偏好变成可审计决策</text>

  <rect class="gov" x="484" y="210" width="232" height="58"/>
  <text class="label" x="508" y="237">Policy Engine</text>
  <text class="text" x="508" y="258">数据边界 / 租户 / 区域</text>

  <rect class="gov" x="484" y="292" width="232" height="58"/>
  <text class="label" x="508" y="319">Model Catalog</text>
  <text class="text" x="508" y="340">版本 / License / 能力 / 价格</text>

  <rect class="gov" x="484" y="374" width="232" height="58"/>
  <text class="label" x="508" y="401">Eval Gate</text>
  <text class="text" x="508" y="422">企业评测集 / 回归阈值</text>

  <rect class="gov" x="484" y="456" width="232" height="58"/>
  <text class="label" x="508" y="483">Model Selector</text>
  <text class="text" x="508" y="504">primary / fallback / guards</text>

  <rect class="guard" x="484" y="540" width="232" height="58"/>
  <text class="label" x="508" y="567">Release Controller</text>
  <text class="text" x="508" y="588">灰度 / pinning / 回滚</text>

  <rect class="panel" x="854" y="122" width="300" height="510"/>
  <text class="head" x="882" y="158">模型矩阵</text>
  <text class="tiny" x="882" y="180">按任务、风险与成本组合使用</text>

  <rect class="model" x="882" y="205" width="244" height="72"/>
  <text class="label" x="902" y="232">fast-classifier</text>
  <text class="text" x="902" y="255">低成本 / 高频 / 低风险</text>

  <rect class="model" x="882" y="294" width="244" height="72"/>
  <text class="label" x="902" y="321">frontier-reasoner</text>
  <text class="text" x="902" y="344">高难推理 / 强兜底</text>

  <rect class="model" x="882" y="383" width="244" height="72"/>
  <text class="label" x="902" y="410">local-qwen3-32b</text>
  <text class="text" x="902" y="433">本地 / 敏感数据 / 稳定负载</text>

  <rect class="model" x="882" y="472" width="244" height="72"/>
  <text class="label" x="902" y="499">edge-small-model</text>
  <text class="text" x="902" y="522">离线节点 / 门店 SOP</text>

  <path class="line" d="M346 376 C386 376 404 376 448 376"/>
  <path class="line" d="M752 376 C792 376 810 376 854 376"/>
  <path class="dash" d="M1004 544 C1004 618 600 670 196 544"/>
  <text class="tiny" x="452" y="675">trace 记录：为什么选它、何时降级、哪些数据允许进入、输出经过哪些校验</text>
</svg>
