<svg xmlns="http://www.w3.org/2000/svg" width="1320" height="470" viewBox="0 0 1320 470" role="img">
  <defs>
    <marker id="blue-arrow" viewBox="0 0 10 10" refX="9" refY="5" markerWidth="8" markerHeight="8" orient="auto">
      <path d="M1 1 L9 5 L1 9 Z" fill="#1f5f8b"/>
    </marker>
    <style>
      .bg { fill: #fff; }
      .external { fill: #f3f4f5; stroke: #8f989f; stroke-width: 1.4; }
      .component { fill: #f8fbfd; stroke: #1f5f8b; stroke-width: 1.7; }
      .control { fill: #fff8f8; stroke: #b33939; stroke-width: 1.5; }
      .flow { stroke: #1f5f8b; stroke-width: 2.1; fill: none; marker-end: url(#blue-arrow); }
      .thin { stroke: #aab7bf; stroke-width: 1; }
      .label { font-family: "PingFang SC", "Noto Sans CJK SC", "Microsoft YaHei", Arial, sans-serif; font-size: 19px; font-weight: 700; fill: #202a33; }
      .sub { font-family: "PingFang SC", "Noto Sans CJK SC", "Microsoft YaHei", Arial, sans-serif; font-size: 14px; fill: #52606d; }
      .tag { font-family: "SFMono-Regular", Consolas, monospace; font-size: 12px; font-weight: 700; fill: #1f5f8b; }
      .tag-red { font-family: "SFMono-Regular", Consolas, monospace; font-size: 12px; font-weight: 700; fill: #b33939; }
    </style>
  </defs>
  <rect class="bg" width="1320" height="470"/>

  <g transform="translate(52 112)">
    <rect class="external" width="170" height="112" rx="3"/>
    <text class="tag" x="18" y="27">01</text>
    <text class="label" x="18" y="58">Raw content</text>
    <text class="sub" x="18" y="84">query / chunk</text>
  </g>

  <path class="flow" d="M240 168 H322"/>

  <g transform="translate(330 112)">
    <rect class="component" width="196" height="112" rx="3"/>
    <text class="tag" x="18" y="27">02</text>
    <text class="label" x="18" y="58">Embedding model</text>
    <text class="sub" x="18" y="84">model version</text>
  </g>

  <path class="flow" d="M544 168 H610"/>

  <g transform="translate(628 112)">
    <rect class="component" width="220" height="112" rx="3"/>
    <text class="tag" x="18" y="27">03</text>
    <text class="label" x="18" y="58">Vector representation</text>
    <text class="sub" x="18" y="84">dimension / normalized</text>
  </g>

  <path class="flow" d="M866 168 H916"/>

  <g transform="translate(934 82)">
    <rect class="control" width="170" height="172" rx="3"/>
    <text class="tag-red" x="18" y="27">04</text>
    <text class="label" x="18" y="58">Similarity metric</text>
    <line class="thin" x1="18" y1="76" x2="152" y2="76"/>
    <text class="sub" x="18" y="102">cosine: direction</text>
    <text class="sub" x="18" y="128">dot: direction + length</text>
    <text class="sub" x="18" y="154">euclidean: geometry</text>
  </g>

  <path class="flow" d="M1122 168 H1182"/>

  <g transform="translate(1182 112)">
    <rect class="component" width="136" height="112" rx="3"/>
    <text class="tag" x="18" y="27">05</text>
    <text class="label" x="18" y="58">top-k</text>
    <text class="sub" x="18" y="84">Candidates</text>
  </g>

  <g transform="translate(226 310)">
    <rect class="control" width="888" height="62" rx="3"/>
    <text class="tag-red" x="18" y="27">CHECK</text>
    <text class="sub" x="86" y="27">Index contracts must record model_name, model_version, dimension, metric, normalize, and index_version.</text>
    <text class="sub" x="86" y="49">When model or normalization changes, create a new index or dual-write rollout. Do not mix vector spaces in one index.</text>
  </g>
</svg>
