<svg xmlns="http://www.w3.org/2000/svg" width="980" height="390" viewBox="0 0 980 390" role="img" aria-label="AI platform team responsibility map">
  <defs><marker id="r" viewBox="0 0 10 10" refX="8" refY="5" markerWidth="7" markerHeight="7" orient="auto-start-reverse"><path d="M0 0 L10 5 L0 10z" fill="#d14b4b"/></marker><marker id="b" viewBox="0 0 10 10" refX="8" refY="5" markerWidth="7" markerHeight="7" orient="auto-start-reverse"><path d="M0 0 L10 5 L0 10z" fill="#2563eb"/></marker><style>.bg{fill:#fff}.comp{fill:#eef5ff;stroke:#2563eb;stroke-width:1.5}.ext{fill:#f4f4f5;stroke:#9ca3af;stroke-width:1.3}.ctrl{fill:#fff1f2;stroke:#d14b4b;stroke-width:1.4}.red{fill:none;stroke:#d14b4b;stroke-width:2;marker-end:url(#r)}.blue{fill:none;stroke:#2563eb;stroke-width:2;marker-end:url(#b)}.txt{font:15px -apple-system,BlinkMacSystemFont,"Segoe UI",sans-serif;fill:#111827}.sub{font:12px -apple-system,BlinkMacSystemFont,"Segoe UI",sans-serif;fill:#4b5563}</style></defs>
  <rect class="bg" width="980" height="390"/>
  <rect class="comp" x="392" y="140" width="190" height="82" rx="6"/><text class="txt" x="487" y="172" text-anchor="middle">AI 平台团队</text><text class="sub" x="487" y="196" text-anchor="middle">共享能力 / 接口 / 治理</text>
  <rect class="ext" x="72" y="58" width="150" height="60" rx="6"/><text class="txt" x="147" y="92" text-anchor="middle">业务 Owner</text>
  <rect class="ext" x="72" y="272" width="150" height="60" rx="6"/><text class="txt" x="147" y="306" text-anchor="middle">业务应用团队</text>
  <rect class="ext" x="414" y="40" width="150" height="60" rx="6"/><text class="txt" x="489" y="74" text-anchor="middle">数据平台团队</text>
  <rect class="ctrl" x="748" y="58" width="150" height="60" rx="6"/><text class="txt" x="823" y="92" text-anchor="middle">安全合规团队</text>
  <rect class="ext" x="748" y="272" width="150" height="60" rx="6"/><text class="txt" x="823" y="306" text-anchor="middle">SRE / 运维</text>
  <path class="red" d="M222 88 C304 90 330 142 392 166"/><path class="red" d="M222 302 C304 300 330 220 392 198"/><path class="blue" d="M489 100V140"/><path class="red" d="M748 88 C666 90 638 142 582 166"/><path class="blue" d="M748 302 C666 298 638 220 582 198"/>
  <text class="sub" x="289" y="130">价值目标</text><text class="sub" x="297" y="262">场景接入</text><text class="sub" x="522" y="120">数据契约</text><text class="sub" x="660" y="130">发布门禁</text><text class="sub" x="650" y="262">SLO / 事故</text>
</svg>
