<svg xmlns="http://www.w3.org/2000/svg" width="1320" height="540" viewBox="0 0 1320 540" role="img">
  <defs>
    <marker id="blue-arrow" viewBox="0 0 10 10" refX="9" refY="5" markerWidth="8" markerHeight="8" orient="auto">
      <path d="M1 1 L9 5 L1 9 Z" fill="#1f5f8b"/>
    </marker>
    <marker id="red-arrow" viewBox="0 0 10 10" refX="9" refY="5" markerWidth="8" markerHeight="8" orient="auto">
      <path d="M1 1 L9 5 L1 9 Z" fill="#b33939"/>
    </marker>
    <style>
      .bg { fill: #fff; }
      .external { fill: #f3f4f5; stroke: #8f989f; stroke-width: 1.4; }
      .component { fill: #f8fbfd; stroke: #1f5f8b; stroke-width: 1.7; }
      .control { fill: #fff8f8; stroke: #b33939; stroke-width: 1.5; }
      .flow { stroke: #1f5f8b; stroke-width: 2.1; fill: none; marker-end: url(#blue-arrow); }
      .control-flow { stroke: #b33939; stroke-width: 1.9; fill: none; marker-end: url(#red-arrow); stroke-dasharray: 7 5; }
      .label { font-family: "PingFang SC", "Noto Sans CJK SC", "Microsoft YaHei", Arial, sans-serif; font-size: 18px; font-weight: 700; fill: #202a33; }
      .sub { font-family: "PingFang SC", "Noto Sans CJK SC", "Microsoft YaHei", Arial, sans-serif; font-size: 14px; fill: #52606d; }
      .tag { font-family: "SFMono-Regular", Consolas, monospace; font-size: 12px; font-weight: 700; fill: #1f5f8b; }
      .tag-red { font-family: "SFMono-Regular", Consolas, monospace; font-size: 12px; font-weight: 700; fill: #b33939; }
    </style>
  </defs>
  <rect class="bg" width="1320" height="540"/>

  <g transform="translate(56 176)">
    <rect class="external" width="186" height="128" rx="3"/>
    <text class="tag" x="18" y="27">01</text>
    <text class="label" x="18" y="58">用户输入</text>
    <text class="sub" x="18" y="84">文本问题 / 图片</text>
    <text class="sub" x="18" y="106">截图 / PDF 页面</text>
  </g>
  <path class="flow" d="M260 240 H334"/>

  <g transform="translate(352 176)">
    <rect class="control" width="186" height="128" rx="3"/>
    <text class="tag-red" x="18" y="27">02</text>
    <text class="label" x="18" y="58">解析与脱敏</text>
    <text class="sub" x="18" y="84">OCR / 版面解析</text>
    <text class="sub" x="18" y="106">PII 处理 / 权限标记</text>
  </g>

  <path class="flow" d="M538 216 H636"/>
  <path class="flow" d="M538 264 H636"/>

  <g transform="translate(654 118)">
    <rect class="component" width="190" height="104" rx="3"/>
    <text class="tag" x="18" y="27">03A</text>
    <text class="label" x="18" y="58">文本 embedding</text>
    <text class="sub" x="18" y="82">OCR 文本 / 字段说明</text>
  </g>

  <g transform="translate(654 278)">
    <rect class="component" width="190" height="104" rx="3"/>
    <text class="tag" x="18" y="27">03B</text>
    <text class="label" x="18" y="58">视觉 embedding</text>
    <text class="sub" x="18" y="82">图片 / 区域 / 页面版式</text>
  </g>

  <path class="flow" d="M844 170 C910 170 916 240 962 240"/>
  <path class="flow" d="M844 330 C910 330 916 240 962 240"/>

  <g transform="translate(980 186)">
    <rect class="component" width="154" height="108" rx="3"/>
    <text class="tag" x="18" y="27">04</text>
    <text class="label" x="18" y="58">候选召回</text>
    <text class="sub" x="18" y="84">文本 + 视觉候选</text>
  </g>
  <path class="flow" d="M1134 240 H1136"/>

  <g transform="translate(1138 176)">
    <rect class="control" width="166" height="128" rx="3"/>
    <text class="tag-red" x="18" y="27">05</text>
    <text class="label" x="18" y="58">权限与证据</text>
    <text class="sub" x="18" y="84">业务过滤</text>
    <text class="sub" x="18" y="106">页码 / 区域 / 字段</text>
  </g>

  <path class="control-flow" d="M1288 304 C1264 386 1096 424 846 392"/>
  <text class="sub" x="920" y="420">证据不足或权限不明时回退到结构化解析与人工复核</text>

  <g transform="translate(260 438)">
    <rect class="external" width="760" height="42" rx="3"/>
    <text class="sub" x="18" y="27">边界：多模态 embedding 负责候选生成；金额、日期、字段和审批结论仍需 OCR、规则校验与业务系统确认。</text>
  </g>
</svg>
