<svg xmlns="http://www.w3.org/2000/svg" width="1320" height="520" viewBox="0 0 1320 520" role="img">
  <defs><marker id="blue-arrow" viewBox="0 0 10 10" refX="9" refY="5" markerWidth="8" markerHeight="8" orient="auto"><path d="M1 1 L9 5 L1 9 Z" fill="#1f5f8b"/></marker><marker id="red-arrow" viewBox="0 0 10 10" refX="9" refY="5" markerWidth="8" markerHeight="8" orient="auto"><path d="M1 1 L9 5 L1 9 Z" fill="#b33939"/></marker><style>.bg{fill:#fff}.external{fill:#f3f4f5;stroke:#8f989f;stroke-width:1.4}.component{fill:#f8fbfd;stroke:#1f5f8b;stroke-width:1.7}.control{fill:#fff8f8;stroke:#b33939;stroke-width:1.5}.flow{stroke:#1f5f8b;stroke-width:2.1;fill:none;marker-end:url(#blue-arrow)}.control-flow{stroke:#b33939;stroke-width:1.9;fill:none;marker-end:url(#red-arrow);stroke-dasharray:7 5}.label{font-family:"PingFang SC","Noto Sans CJK SC","Microsoft YaHei",Arial,sans-serif;font-size:18px;font-weight:700;fill:#202a33}.sub{font-family:"PingFang SC","Noto Sans CJK SC","Microsoft YaHei",Arial,sans-serif;font-size:14px;fill:#52606d}.tag{font-family:"SFMono-Regular",Consolas,monospace;font-size:12px;font-weight:700;fill:#1f5f8b}.tag-red{font-family:"SFMono-Regular",Consolas,monospace;font-size:12px;font-weight:700;fill:#b33939}</style></defs>
  <rect class="bg" width="1320" height="520"/>
  <g transform="translate(60 90)"><rect class="external" width="170" height="116" rx="3"/><text class="tag" x="18" y="27">IN</text><text class="label" x="18" y="58">业务内容</text><text class="sub" x="18" y="84">chunk / metadata</text></g>
  <path class="flow" d="M230 148 H310"/>
  <g transform="translate(328 90)"><rect class="component" width="180" height="116" rx="3"/><text class="tag" x="18" y="27">01</text><text class="label" x="18" y="58">Embedding 服务</text><text class="sub" x="18" y="84">model / dimension</text></g>
  <path class="flow" d="M508 148 H588"/>
  <g transform="translate(606 66)"><rect class="component" width="224" height="164" rx="3"/><text class="tag" x="18" y="27">02</text><text class="label" x="18" y="58">向量库平台</text><text class="sub" x="18" y="86">namespace / collection</text><text class="sub" x="18" y="112">ANN index / metric</text><text class="sub" x="18" y="138">payload / filter</text></g>
  <path class="flow" d="M830 148 H910"/>
  <g transform="translate(928 90)"><rect class="component" width="180" height="116" rx="3"/><text class="tag" x="18" y="27">03</text><text class="label" x="18" y="58">检索服务</text><text class="sub" x="18" y="84">top-k / filter / rerank</text></g>
  <path class="flow" d="M1108 148 H1134"/>
  <g transform="translate(1136 90)"><rect class="external" width="168" height="116" rx="3"/><text class="tag" x="18" y="27">OUT</text><text class="label" x="18" y="58">应用</text><text class="sub" x="18" y="84">RAG / DataAgent</text></g>
  <g transform="translate(246 350)"><rect class="control" width="260" height="72" rx="3"/><text class="tag-red" x="18" y="27">ACL</text><text class="sub" x="76" y="27">租户 / 部门 / 密级</text><text class="sub" x="76" y="50">pre-filter 优先</text></g>
  <g transform="translate(590 350)"><rect class="control" width="260" height="72" rx="3"/><text class="tag-red" x="18" y="27">LIFE</text><text class="sub" x="76" y="27">构建 / 双写 / 切流</text><text class="sub" x="76" y="50">回滚 / 归档</text></g>
  <g transform="translate(934 350)"><rect class="control" width="260" height="72" rx="3"/><text class="tag-red" x="18" y="27">OBS</text><text class="sub" x="76" y="27">p95 / recall / QPS</text><text class="sub" x="76" y="50">索引大小 / 过滤命中</text></g>
  <path class="control-flow" d="M376 350 C420 274 526 224 606 188"/>
  <path class="control-flow" d="M720 350 V230"/>
  <path class="control-flow" d="M1064 350 C1020 276 944 232 830 190"/>
</svg>
