<svg xmlns="http://www.w3.org/2000/svg" width="1320" height="560" viewBox="0 0 1320 560" role="img">
  <defs><marker id="blue-arrow" viewBox="0 0 10 10" refX="9" refY="5" markerWidth="8" markerHeight="8" orient="auto"><path d="M1 1 L9 5 L1 9 Z" fill="#1f5f8b"/></marker><marker id="red-arrow" viewBox="0 0 10 10" refX="9" refY="5" markerWidth="8" markerHeight="8" orient="auto"><path d="M1 1 L9 5 L1 9 Z" fill="#b33939"/></marker><style>.bg{fill:#fff}.external{fill:#f3f4f5;stroke:#8f989f;stroke-width:1.4}.component{fill:#f8fbfd;stroke:#1f5f8b;stroke-width:1.7}.control{fill:#fff8f8;stroke:#b33939;stroke-width:1.5}.flow{stroke:#1f5f8b;stroke-width:2.1;fill:none;marker-end:url(#blue-arrow)}.control-flow{stroke:#b33939;stroke-width:1.9;fill:none;marker-end:url(#red-arrow);stroke-dasharray:7 5}.label{font-family:"PingFang SC","Noto Sans CJK SC","Microsoft YaHei",Arial,sans-serif;font-size:18px;font-weight:700;fill:#202a33}.sub{font-family:"PingFang SC","Noto Sans CJK SC","Microsoft YaHei",Arial,sans-serif;font-size:14px;fill:#52606d}.tag{font-family:"SFMono-Regular",Consolas,monospace;font-size:12px;font-weight:700;fill:#1f5f8b}.tag-red{font-family:"SFMono-Regular",Consolas,monospace;font-size:12px;font-weight:700;fill:#b33939}</style></defs>
  <rect class="bg" width="1320" height="560"/>
  <g transform="translate(60 92)"><rect class="external" width="160" height="108" rx="3"/><text class="tag" x="18" y="27">01</text><text class="label" x="18" y="58">用户问题</text><text class="sub" x="18" y="82">query / context</text></g>
  <path class="flow" d="M220 146 H292"/>
  <g transform="translate(310 92)"><rect class="component" width="170" height="108" rx="3"/><text class="tag" x="18" y="27">02</text><text class="label" x="18" y="58">查询理解</text><text class="sub" x="18" y="82">rewrite / filter / plan</text></g>
  <path class="flow" d="M480 146 H552"/>
  <g transform="translate(570 92)"><rect class="component" width="170" height="108" rx="3"/><text class="tag" x="18" y="27">03</text><text class="label" x="18" y="58">混合召回</text><text class="sub" x="18" y="82">vector / BM25 / graph</text></g>
  <path class="flow" d="M740 146 H812"/>
  <g transform="translate(830 92)"><rect class="component" width="170" height="108" rx="3"/><text class="tag" x="18" y="27">04</text><text class="label" x="18" y="58">排序融合</text><text class="sub" x="18" y="82">RRF / reranker</text></g>
  <path class="flow" d="M1000 146 H1072"/>
  <g transform="translate(1090 92)"><rect class="component" width="170" height="108" rx="3"/><text class="tag" x="18" y="27">05</text><text class="label" x="18" y="58">上下文组装</text><text class="sub" x="18" y="82">evidence budget</text></g>
  <g transform="translate(570 294)"><rect class="component" width="170" height="108" rx="3"/><text class="tag" x="18" y="27">06</text><text class="label" x="18" y="58">答案生成</text><text class="sub" x="18" y="82">LLM + policy</text></g>
  <path class="flow" d="M1175 200 C1175 274 822 348 740 348"/>
  <g transform="translate(310 294)"><rect class="control" width="170" height="108" rx="3"/><text class="tag-red" x="18" y="27">07</text><text class="label" x="18" y="58">引用校验</text><text class="sub" x="18" y="82">faithfulness / ACL</text></g>
  <path class="flow" d="M570 348 H480"/>
  <path class="control-flow" d="M395 294 C350 244 352 202 390 200"/>
  <g transform="translate(828 410)"><rect class="control" width="330" height="72" rx="3"/><text class="tag-red" x="18" y="26">GATE</text><text class="sub" x="82" y="25">证据不足、权限无效时拒答</text><text class="sub" x="82" y="47">或在引用冲突时澄清</text></g>
</svg>
