<svg xmlns="http://www.w3.org/2000/svg" width="1320" height="520" viewBox="0 0 1320 520" role="img">
  <defs><marker id="blue-arrow" viewBox="0 0 10 10" refX="9" refY="5" markerWidth="8" markerHeight="8" orient="auto"><path d="M1 1 L9 5 L1 9 Z" fill="#1f5f8b"/></marker><marker id="red-arrow" viewBox="0 0 10 10" refX="9" refY="5" markerWidth="8" markerHeight="8" orient="auto"><path d="M1 1 L9 5 L1 9 Z" fill="#b33939"/></marker><style>.bg{fill:#fff}.external{fill:#f3f4f5;stroke:#8f989f;stroke-width:1.4}.component{fill:#f8fbfd;stroke:#1f5f8b;stroke-width:1.7}.control{fill:#fff8f8;stroke:#b33939;stroke-width:1.5}.flow{stroke:#1f5f8b;stroke-width:2.1;fill:none;marker-end:url(#blue-arrow)}.control-flow{stroke:#b33939;stroke-width:1.9;fill:none;marker-end:url(#red-arrow);stroke-dasharray:7 5}.label{font-family:"PingFang SC","Noto Sans CJK SC","Microsoft YaHei",Arial,sans-serif;font-size:18px;font-weight:700;fill:#202a33}.sub{font-family:"PingFang SC","Noto Sans CJK SC","Microsoft YaHei",Arial,sans-serif;font-size:14px;fill:#52606d}.tag{font-family:"SFMono-Regular",Consolas,monospace;font-size:12px;font-weight:700;fill:#1f5f8b}.tag-red{font-family:"SFMono-Regular",Consolas,monospace;font-size:12px;font-weight:700;fill:#b33939}</style></defs>
  <rect class="bg" width="1320" height="520"/>
  <g transform="translate(56 112)"><rect class="external" width="154" height="116" rx="3"/><text class="tag" x="18" y="27">01</text><text class="label" x="18" y="58">原始文档</text><text class="sub" x="18" y="84">PDF / 图片 / PPT</text></g>
  <path class="flow" d="M210 170 H284"/>
  <g transform="translate(302 112)"><rect class="component" width="170" height="116" rx="3"/><text class="tag" x="18" y="27">02</text><text class="label" x="18" y="58">文本与 OCR</text><text class="sub" x="18" y="84">文字 / bbox / 置信度</text></g>
  <path class="flow" d="M472 170 H546"/>
  <g transform="translate(564 112)"><rect class="component" width="170" height="116" rx="3"/><text class="tag" x="18" y="27">03</text><text class="label" x="18" y="58">版面解析</text><text class="sub" x="18" y="84">block / table / figure</text></g>
  <path class="flow" d="M734 170 H808"/>
  <g transform="translate(826 112)"><rect class="component" width="170" height="116" rx="3"/><text class="tag" x="18" y="27">04</text><text class="label" x="18" y="58">结构化 chunk</text><text class="sub" x="18" y="84">source span / metadata</text></g>
  <path class="flow" d="M996 170 H1070"/>
  <g transform="translate(1088 112)"><rect class="component" width="170" height="116" rx="3"/><text class="tag" x="18" y="27">05</text><text class="label" x="18" y="58">索引与引用</text><text class="sub" x="18" y="84">embedding / citation</text></g>
  <g transform="translate(302 352)"><rect class="control" width="260" height="72" rx="3"/><text class="tag-red" x="18" y="27">QC</text><text class="sub" x="76" y="27">OCR 置信度 / 表格通过率</text><text class="sub" x="76" y="50">低置信区域复核</text></g>
  <g transform="translate(662 352)"><rect class="control" width="260" height="72" rx="3"/><text class="tag-red" x="18" y="27">ACL</text><text class="sub" x="76" y="27">source / version / 权限</text><text class="sub" x="76" y="50">缺失则禁止写入索引</text></g>
  <path class="control-flow" d="M432 352 C432 286 468 242 564 205"/>
  <path class="control-flow" d="M792 352 C810 288 870 242 918 228"/>
</svg>
